<svg width="51" height="51" viewBox="0 0 51 51" fill="none" xmlns="http://www.w3.org/2000/svg">
<g clip-path="url(#clip0_325_11127)">
<path d="M39.4102 27.1214C39.4612 23.1477 41.5437 19.4778 44.9288 17.3974C42.7847 14.3332 39.3188 12.461 35.5809 12.3442C31.6475 11.9319 27.8353 14.6965 25.8314 14.6965C23.7893 14.6965 20.7038 12.3845 17.3803 12.4525C13.0092 12.5949 9.03116 15.0195 6.90404 18.8424C2.37566 26.6837 5.75229 38.2097 10.0915 44.5485C12.2633 47.6532 14.7984 51.119 18.1198 50.9979C21.3689 50.864 22.5823 48.926 26.5029 48.926C30.3874 48.926 31.5264 50.9979 34.9137 50.9193C38.3987 50.8619 40.5959 47.8019 42.6912 44.6675C44.2509 42.4554 45.4515 40.0117 46.2463 37.4255C42.1068 35.6745 39.4144 31.6179 39.4102 27.1214Z" fill="black"/>
<path d="M33.0119 8.17487C34.9116 5.89262 35.8487 2.96012 35.6214 0C32.7186 0.306 30.0347 1.69362 28.1095 3.88662C26.2076 6.052 25.2429 8.8825 25.4299 11.7597C28.373 11.7895 31.1674 10.4677 33.0119 8.17487Z" fill="black"/>
</g>
<defs>
<clipPath id="clip0_325_11127">
<rect width="51" height="51" fill="white"/>
</clipPath>
</defs>
</svg>
