<svg xmlns="http://www.w3.org/2000/svg" version="1.1" xmlns:xlink="http://www.w3.org/1999/xlink" width="512" height="512" x="0" y="0" viewBox="0 0 513 513" style="enable-background:new 0 0 512 512" xml:space="preserve" class=""><g><clipPath id="a"><path d="M.675.623h512v512h-512z" fill="#fc913a" opacity="1" data-original="#000000" class=""></path></clipPath><g fill="#000" fill-rule="evenodd" clip-path="url(#a)" clip-rule="evenodd"><path d="M176.628.623h224.093a64.14 64.14 0 0 1 63.954 63.953v368.047a16 16 0 0 1-25.995 12.493l-80-64 19.99-24.987 54.005 43.204V64.65a32.142 32.142 0 0 0-32.026-32.027H176.7a32.14 32.14 0 0 0-32.025 32.025v15.975h-32V64.576A64.14 64.14 0 0 1 176.628.623z" fill="#fc913a" opacity="1" data-original="#000000" class=""></path><path d="M112.628 80.623h208.093a64.14 64.14 0 0 1 63.954 63.953v352.047a16 16 0 0 1-26.306 12.238L216.675 389.54 74.981 508.861a16 16 0 0 1-26.306-12.238V144.576a64.14 64.14 0 0 1 63.953-63.953zm.072 32a32.137 32.137 0 0 0-32.025 32.025v317.583l125.694-105.847a16 16 0 0 1 20.612 0l125.694 105.847V144.65a32.142 32.142 0 0 0-32.026-32.027z" fill="#fc913a" opacity="1" data-original="#000000" class=""></path></g></g></svg>