<svg fill="none" height="513" viewBox="0 0 513 513" width="513" xmlns="http://www.w3.org/2000/svg" xmlns:xlink="http://www.w3.org/1999/xlink"><clipPath id="clip0_14_480"><path d="m.675.623h512v512h-512z"/></clipPath><g clip-path="url(#clip0_14_480)" clip-rule="evenodd" fill="rgb(0,0,0)" fill-rule="evenodd"><path d="m176.628.622626.047-.000067h224l.046.000067c16.947.049212 33.185 6.802944 45.168 18.785874 11.983 11.983 18.737 28.2212 18.786 45.1676v.0465 368.0004c0 6.15-3.526 11.756-9.069 14.42-5.544 2.665-12.124 1.916-16.926-1.927l-80-64 19.99-24.987 54.005 43.204v-334.6831c-.03-8.4848-3.414-16.6139-9.414-22.614-5.999-5.9996-14.128-9.3832-22.612-9.4133h-223.949c-8.484.0301-16.612 3.4137-22.612 9.4133-5.999 5.9996-9.383 14.128-9.413 22.6122v15.9745h-32v-16-.0465c.049-16.9464 6.803-33.1846 18.786-45.1676 11.983-11.98293 28.221-18.736662 45.167-18.785874z"/><path d="m112.628 80.6226h.047 208 .046c16.947.0492 33.185 6.803 45.168 18.7859 11.983 11.9825 18.737 28.2215 18.786 45.1675v.047 352c0 6.223-3.609 11.881-9.251 14.506-5.643 2.625-12.295 1.741-17.055-2.268l-141.694-119.321-141.694 119.321c-4.7602 4.009-11.4129 4.893-17.0553 2.268-5.6425-2.625-9.2509-8.283-9.2509-14.506v-352l.0001-.047c.0492-16.946 6.8029-33.185 18.7859-45.1675 11.9829-11.9829 28.2212-18.7367 45.1672-18.7859zm.072 32.0004c-8.484.03-16.6122 3.413-22.6118 9.413s-9.3832 14.128-9.4134 22.612v317.583l125.6942-105.847c5.955-5.015 14.656-5.015 20.612 0l125.694 105.847v-317.581c-.03-8.485-3.414-16.614-9.414-22.614-5.999-6-14.128-9.383-22.612-9.413z"/></g></svg>