<svg width="51" height="51" viewBox="0 0 51 51" fill="none" xmlns="http://www.w3.org/2000/svg">
<g clip-path="url(#clip0_325_11122)">
<path d="M51 25.6552C51 38.3818 41.6628 48.9324 29.4737 50.847V33.0756H35.4004L36.5288 25.7232H29.4737V20.9525C29.4737 18.9402 30.4597 16.9809 33.6175 16.9809H36.8241V10.7207C36.8241 10.7207 33.9129 10.2234 31.1312 10.2234C25.3215 10.2234 21.5263 13.7445 21.5263 20.1174V25.721H15.0684V33.0735H21.5263V50.8449C9.33937 48.9282 0 38.3797 0 25.6552C0 11.5728 11.4176 0.155151 25.5 0.155151C39.5824 0.155151 51 11.5707 51 25.6552Z" fill="black"/>
</g>
<defs>
<clipPath id="clip0_325_11122">
<rect width="51" height="51" fill="white"/>
</clipPath>
</defs>
</svg>
