<svg width="50" height="52" viewBox="0 0 50 52" fill="none" xmlns="http://www.w3.org/2000/svg">
<path d="M25.9307 30.392V23.406H49.4709C49.701 24.6225 49.8203 26.0628 49.8203 27.6223C49.8203 32.8634 48.3886 39.3445 43.7696 43.9614C39.2785 48.6379 33.5409 51.1327 25.9392 51.1327C11.8479 51.1327 0 39.6556 0 25.5664C0 11.4772 11.8479 0 25.9392 0C33.7348 0 39.287 3.05944 43.4586 7.04567L38.5285 11.9736C35.5373 9.16768 31.4829 6.98601 25.9307 6.98601C15.6424 6.98601 7.59534 15.278 7.59534 25.5664C7.59534 35.8547 15.6424 44.1467 25.9307 44.1467C32.6035 44.1467 36.4044 41.4665 38.8396 39.0313C40.8146 37.0563 42.1142 34.2355 42.6255 30.3835L25.9307 30.392Z" fill="black"/>
</svg>
