<svg id="Layer_3" enable-background="new 0 0 64 64" height="512" viewBox="0 0 64 64" width="512" xmlns="http://www.w3.org/2000/svg"><path d="m62 1h-6c-.553 0-1 .447-1 1v5h-27c-6.065 0-11 4.935-11 11v20c0 .553.447 1 1 1h37v23c0 .553.447 1 1 1h6c.553 0 1-.447 1-1v-60c0-.553-.447-1-1-1zm-34 8h27v24h-36v-15c0-4.963 4.037-9 9-9zm-9 28v-2h36v2zm42 24h-4v-58h4z"/><path d="m42 31h10c.553 0 1-.447 1-1v-4c0-.553-.447-1-1-1h-10c-.553 0-1 .447-1 1v4c0 .553.447 1 1 1zm1-4h8v2h-8z"/><path d="m38.707 55.293c-.187-.188-.441-.293-.707-.293h-9v-2c0-.266-.105-.52-.293-.707l-7-7c-.187-.188-.441-.293-.707-.293h-10v-3c0-.553-.447-1-1-1h-8c-.553 0-1 .447-1 1v18c0 .553.447 1 1 1h8c.553 0 1-.447 1-1v-3h1.586l5.707 5.707c.187.188.441.293.707.293h19c.266 0 .52-.105.707-.293l2-2c.188-.187.293-.441.293-.707v-2c0-.266-.105-.52-.293-.707zm-29.707 3.707h-6v-16h6zm30 .586-1.414 1.414h-18.172l-5.707-5.707c-.187-.188-.441-.293-.707-.293h-2v-8h9.586l6.414 6.414v1.172l-1.414 1.414h-1.172l-3.707-3.707-1.414 1.414 4 4c.187.188.441.293.707.293h2c.266 0 .52-.105.707-.293l.707-.707h10.172l1.414 1.414z"/><path d="m33.707 41.707-1.414-1.414-1.293 1.293c-.645.645-1 1.502-1 2.414s.355 1.77 1 2.414l.586.586c.267.268.414.622.414 1s-.147.732-.414 1l-1.293 1.293 1.414 1.414 1.293-1.293c.645-.645 1-1.502 1-2.414s-.355-1.77-1-2.414l-.586-.586c-.267-.268-.414-.622-.414-1s.147-.732.414-1z"/><path d="m39.707 41.707-1.414-1.414-1.293 1.293c-.645.645-1 1.502-1 2.414s.355 1.77 1 2.414l.586.586c.267.268.414.622.414 1s-.147.732-.414 1l-1.293 1.293 1.414 1.414 1.293-1.293c.645-.645 1-1.502 1-2.414s-.355-1.77-1-2.414l-.586-.586c-.267-.268-.414-.622-.414-1s.147-.732.414-1z"/><path d="m44.414 45c-.267-.268-.414-.622-.414-1s.147-.732.414-1l1.293-1.293-1.414-1.414-1.293 1.293c-.645.645-1 1.502-1 2.414s.355 1.77 1 2.414l.586.586c.267.268.414.622.414 1s-.147.732-.414 1l-1.293 1.293 1.414 1.414 1.293-1.293c.645-.645 1-1.502 1-2.414s-.355-1.77-1-2.414z"/></svg>