<svg height="533pt" viewBox="-16 -16 533.33332 533" width="533pt" xmlns="http://www.w3.org/2000/svg"><path d="m500 210.167969v-150c0-33.136719-26.867188-60-60-60s-60 26.863281-60 60v150c.054688 12.664062 8.058594 23.933593 20 28.15625v21.84375h-10c-5.523438 0-10 4.476562-10 10v40c0 5.519531 4.476562 10 10 10h40v100c0 11.042969-8.953125 20-20 20-11.042969 0-20-8.957031-20-20v-10c0-22.089844-17.910156-40-40-40s-40 17.910156-40 40v80c0 5.519531 4.476562 10 10 10s10-4.480469 10-10v-80c0-11.046875 8.957031-20 20-20 11.046875 0 20 8.953125 20 20v10c0 22.089843 17.910156 40 40 40s40-17.910157 40-40v-100h40c5.523438 0 10-4.480469 10-10v-40c0-5.523438-4.476562-10-10-10h-10v-21.84375c11.941406-4.222657 19.945312-15.492188 20-28.15625zm-20 90h-80v-20h80zm-20-40h-40v-20h40zm-60-52.789063 53.160156-17.71875c5.246094-1.75 8.085938-7.417968 6.339844-12.664062s-7.414062-8.085938-12.660156-6.339844l-46.839844 15.628906v-28.90625l53.160156-17.71875c5.246094-1.75 8.085938-7.417968 6.339844-12.664062s-7.414062-8.085938-12.660156-6.339844l-46.839844 15.628906v-28.90625l53.160156-17.71875c5.246094-1.75 8.085938-7.417968 6.339844-12.664062s-7.414062-8.085938-12.660156-6.339844l-46.839844 15.628906v-26.117187c0-22.089844 17.910156-40 40-40s40 17.910156 40 40v150c0 5.519531-4.476562 10-10 10h-60c-5.523438 0-10-4.480469-10-10zm0 0"/><path d="m160 70.167969c-27.601562.03125-49.964844 22.394531-50 50v40c0 .363281.019531.730469.058594 1.097656l5.34375 48.003906c3.007812 27.152344 3.007812 54.558594 0 81.71875l-5.34375 47.996094c-.042969.394531-.0625.785156-.058594 1.183594v40c0 27.609375 22.386719 50 50 50s50-22.390625 50-50v-40c0-.367188-.019531-.734375-.058594-1.101563l-5.339844-48c-3.007812-27.15625-3.007812-54.5625 0-81.71875l5.339844-48c.042969-.394531.0625-.785156.058594-1.179687v-40c-.035156-27.605469-22.398438-49.96875-50-50zm0 340c-16.566406 0-30-13.433594-30-30v-39.449219l5.269531-47.480469c3.183594-28.628906 3.183594-57.515625 0-86.144531l-5.269531-47.480469v-39.445312c0-16.570313 13.433594-30 30-30s30 13.429687 30 30v39.445312l-5.269531 47.480469c-3.183594 28.628906-3.183594 57.515625 0 86.144531l5.269531 47.480469v39.449219c0 16.566406-13.433594 30-30 30zm0 0"/><path d="m320 188.996094c.019531-21.523438-13.753906-40.640625-34.179688-47.429688l-25.820312-8.613281v-32.785156c0-55.230469-44.769531-100-100-100s-100 44.769531-100 100v32.785156l-25.820312 8.613281c-20.425782 6.789063-34.1992192 25.90625-34.179688 47.429688v122.34375c-.0195312 21.523437 13.753906 40.636718 34.179688 47.425781l25.820312 8.613281v32.789063c0 55.226562 44.769531 100 100 100s100-44.773438 100-100v-32.789063l25.820312-8.613281c20.425782-6.789063 34.199219-25.902344 34.179688-47.425781zm-20 122.34375c0 12.910156-8.261719 24.375-20.507812 28.457031l-19.492188 6.496094v-192.253907l19.492188 6.5c12.246093 4.082032 20.507812 15.546876 20.507812 28.457032zm-140 168.828125c-44.160156-.050781-79.949219-35.839844-80-80v-300c0-44.1875 35.816406-80 80-80s80 35.8125 80 80v300c-.046875 44.160156-35.839844 79.949219-80 80zm-140-291.171875c0-12.910156 8.261719-24.375 20.507812-28.457032l19.492188-6.5v192.253907l-19.492188-6.496094c-12.246093-4.082031-20.507812-15.546875-20.507812-28.457031zm0 0"/></svg>