<svg width="11" height="9" viewBox="0 0 11 9" fill="none" xmlns="http://www.w3.org/2000/svg">
<path d="M10.1404 1.17043V7.71736C10.1404 7.92824 9.97016 8.0986 9.75921 8.0986H8.24359C8.2717 8.02201 8.28735 7.94235 8.28735 7.85637V1.41731C8.28735 1.18454 8.19202 0.975113 8.02173 0.789185H9.75921C9.97016 0.789185 10.1404 0.959549 10.1404 1.17043Z" fill="#D9D9D9"/>
<path d="M4.36046 0C2.31982 0 0.666687 0.634385 0.666687 1.41716C0.666687 2.20001 2.31982 2.8344 4.36046 2.8344C6.39949 2.8344 8.05263 2.20001 8.05263 1.41716C8.05263 0.634385 6.39949 0 4.36046 0ZM4.36046 1.94374C3.60263 1.94374 2.98854 1.70784 2.98854 1.41716C2.98854 1.12656 3.60263 0.890578 4.36046 0.890578C5.11668 0.890578 5.73074 1.12656 5.73074 1.41716C5.73074 1.70784 5.11668 1.94374 4.36046 1.94374Z" fill="#D9D9D9"/>
<path d="M8.05281 2.00952V7.85639C8.05281 9.38143 0.66687 9.38143 0.66687 7.85639V2.00952C1.25124 2.70174 2.84342 3.06894 4.36064 3.06894C5.87622 3.06894 7.46844 2.70174 8.05281 2.00952Z" fill="#D9D9D9"/>
</svg>
