<svg width="15" height="20" viewBox="0 0 15 20" fill="none" xmlns="http://www.w3.org/2000/svg">
<path d="M14.5 16.4865C14.5 17.1481 13.9083 17.9012 12.5912 18.5182C11.3141 19.1165 9.51461 19.5 7.5 19.5C5.48539 19.5 3.68592 19.1165 2.40881 18.5182C1.09174 17.9012 0.5 17.1481 0.5 16.4865C0.5 15.8249 1.09174 15.0719 2.40881 14.4549C3.68592 13.8566 5.48539 13.473 7.5 13.473C9.51461 13.473 11.3141 13.8566 12.5912 14.4549C13.9083 15.0719 14.5 15.8249 14.5 16.4865Z" fill="white" stroke="black"/>
<mask id="path-2-inside-1_325_10859" fill="white">
<path d="M0 3.24329H15V16.7568H0V3.24329Z"/>
</mask>
<path d="M0 3.24329H15V16.7568H0V3.24329Z" fill="white"/>
<path d="M14 3.24329V16.7568H16V3.24329H14ZM1 16.7568V3.24329H-1V16.7568H1Z" fill="black" mask="url(#path-2-inside-1_325_10859)"/>
<path d="M14.5 3.51351C14.5 4.17511 13.9083 4.92816 12.5912 5.54516C11.3141 6.14345 9.51461 6.52703 7.5 6.52703C5.48539 6.52703 3.68592 6.14345 2.40881 5.54516C1.09174 4.92816 0.5 4.17511 0.5 3.51351C0.5 2.85191 1.09174 2.09887 2.40881 1.48186C3.68592 0.883576 5.48539 0.5 7.5 0.5C9.51461 0.5 11.3141 0.883576 12.5912 1.48186C13.9083 2.09887 14.5 2.85191 14.5 3.51351Z" fill="white" stroke="black"/>
<ellipse cx="7.22224" cy="3.51346" rx="2.77778" ry="1.35135" fill="black"/>
</svg>
