<svg width="10" height="9" viewBox="0 0 10 9" fill="none" xmlns="http://www.w3.org/2000/svg">
<path d="M9.47358 1.17043V7.71736C9.47358 7.92824 9.30329 8.0986 9.09234 8.0986H7.57672C7.60483 8.02201 7.62048 7.94235 7.62048 7.85637V1.41731C7.62048 1.18454 7.52515 0.975113 7.35486 0.789185H9.09234C9.30329 0.789185 9.47358 0.959549 9.47358 1.17043Z" fill="#FC913A"/>
<path d="M3.69377 0C1.65314 0 0 0.634385 0 1.41716C0 2.20001 1.65314 2.8344 3.69377 2.8344C5.7328 2.8344 7.38594 2.20001 7.38594 1.41716C7.38594 0.634385 5.7328 0 3.69377 0ZM3.69377 1.94374C2.93594 1.94374 2.32186 1.70784 2.32186 1.41716C2.32186 1.12656 2.93595 0.890578 3.69377 0.890578C4.45 0.890578 5.06405 1.12656 5.06405 1.41716C5.06405 1.70784 4.45 1.94374 3.69377 1.94374Z" fill="#FC913A"/>
<path d="M7.38594 2.00952V7.85639C7.38594 9.38143 0 9.38143 0 7.85639V2.00952C0.584374 2.70174 2.17655 3.06894 3.69377 3.06894C5.20935 3.06894 6.80157 2.70174 7.38594 2.00952Z" fill="#FC913A"/>
</svg>
