<svg id="Layer_1" enable-background="new 0 0 450 450" height="512" viewBox="0 0 450 450" width="512" xmlns="http://www.w3.org/2000/svg"><g><g><g><g><path clip-rule="evenodd" d="m178.7 410.1c-23.6 0-46.9-3.6-69.3-10.7-22.9-7.3-44.5-18.1-64.1-32.2-1.5-1.1-2.4-2.8-2.4-4.7v-267.9h11.5v264.8c74.7 52.1 173.9 52.1 248.7 0v-264.8c0-3.2 2.6-5.8 5.8-5.8s5.8 2.6 5.8 5.8v267.8c0 1.9-.9 3.6-2.4 4.7-19.6 14.1-41.2 24.9-64.1 32.2-22.6 7.1-45.9 10.8-69.5 10.8z" fill="rgb(0,0,0)" fill-rule="evenodd"/></g><g><path clip-rule="evenodd" d="m178.7 147.9c-35.4 0-68.8-5.1-94-14.2-12.6-4.6-22.6-10-29.7-16.1-8.1-7-12.2-14.7-12.2-22.8 0-6.9 3.2-17.3 18.2-27.4 11.7-7.9 28.6-14.4 49-19 20.7-4.6 44.4-7 68.7-7s48 2.4 68.7 7c20.4 4.5 37.3 11 48.9 18.8 15.1 10.1 18.2 20.5 18.2 27.4 0 8.2-4.1 15.8-12.2 22.8-7.1 6.1-17.1 11.5-29.7 16.1-25.1 9.3-58.5 14.4-93.9 14.4zm0-95c-46.7 0-89.3 9.1-111.2 23.9-6 4-13.1 10.4-13.1 17.8 0 4.7 2.8 9.4 8.2 14.1 5.9 5.1 15 10 26.1 14 24 8.7 55.9 13.6 90 13.6s66.1-4.8 90-13.6c11.1-4.1 20.2-8.9 26.1-14 5.5-4.7 8.2-9.5 8.2-14.1 0-7.4-7.1-13.8-13.1-17.8-21.9-14.7-64.5-23.9-111.2-23.9z" fill="rgb(0,0,0)" fill-rule="evenodd"/></g><g><path clip-rule="evenodd" d="m178.7 117c-12.8 0-25-1.9-34.2-5.2-14.2-5.2-17.1-12.2-17.1-17.2 0-3.3 1.4-8.2 8-12.7 9-6.1 25.2-9.7 43.3-9.7s34.2 3.6 43.3 9.7c6.6 4.5 8 9.4 8 12.7 0 5-3 12-17.1 17.2-9.2 3.4-21.3 5.2-34.2 5.2zm0-33.2c-15.4 0-29.9 3-36.8 7.7-2.4 1.6-2.9 2.8-2.9 3.1 0 .9 2.4 3.7 9.6 6.3 8 2.9 18.7 4.5 30.2 4.5s22.2-1.6 30.2-4.5c7.1-2.6 9.6-5.4 9.6-6.3 0-.3-.5-1.5-2.9-3.1-7.1-4.7-21.6-7.7-37-7.7z" fill="rgb(0,0,0)" fill-rule="evenodd"/></g><g><path clip-rule="evenodd" d="m355.4 376c-16.9 0-33.8-3.9-49-11.2-2.9-1.4-4.1-4.8-2.7-7.7s4.8-4.1 7.7-2.7c26.9 12.9 57.6 13.4 84.8 1.5v-252.5c-13 5-26.9 7.6-40.8 7.6-16.9 0-33.8-3.9-49-11.2l5-10.4c28 13.4 60.1 13.4 88.1 0 1.8-.9 3.9-.7 5.6.3s2.7 2.9 2.7 4.9v265c0 2.2-1.3 4.2-3.3 5.2-15.3 7.3-32.3 11.2-49.1 11.2z" fill="rgb(0,0,0)" fill-rule="evenodd"/></g></g></g></g></svg>