<svg width="88" height="83" viewBox="0 0 88 83" fill="none" xmlns="http://www.w3.org/2000/svg">
<path d="M87.3686 10.7928V71.1707C87.3686 73.1155 85.7982 74.6867 83.8527 74.6867H69.8752C70.1345 73.9802 70.2787 73.2457 70.2787 72.4527V13.0697C70.2787 10.9229 69.3995 8.99154 67.8291 7.27686H83.8527C85.7982 7.27686 87.3686 8.84801 87.3686 10.7928Z" fill="#FC913A"/>
<path d="M34.0652 0C15.2458 0 0 5.8505 0 13.0695C0 20.2892 15.2458 26.1397 34.0652 26.1397C52.8698 26.1397 68.1155 20.2892 68.1155 13.0695C68.1155 5.8505 52.8698 0 34.0652 0ZM34.0652 17.9258C27.0762 17.9258 21.4129 15.7502 21.4129 13.0695C21.4129 10.3895 27.0762 8.2132 34.0652 8.2132C41.0393 8.2132 46.7023 10.3895 46.7023 13.0695C46.7023 15.7503 41.0393 17.9258 34.0652 17.9258Z" fill="#FC913A"/>
<path d="M68.1155 18.53V72.4517C68.1155 86.5161 0 86.5161 0 72.4517V18.53C5.38928 24.9139 20.0729 28.3003 34.0652 28.3003C48.0423 28.3003 62.7263 24.9139 68.1155 18.53Z" fill="#FC913A"/>
</svg>
